# xmcd
#
# Track frame offsets:
#	183
#	13003
#	27708
#	42698
#	54420
#	69005
#	84823
#	98115
#	112375
#	130458
#
# Disc length: 1987 seconds
#
# Revision: 2
# Processed by: cddbd v1.5.2PL0 Copyright (c) Steve Scherf et al.
# Submitted via: audiograbber 1.83.01
#
DISCID=8707c10a
DTITLE=Norm Brunet - Me and My Guitar
DYEAR=1991
DGENRE=Country
TTITLE0=I'll Sing You a Song
TTITLE1=Three Room Mansion
TTITLE2=Take Care of My Heart
TTITLE3=Me and My Guitar
TTITLE4=Stranger to Love
TTITLE5=It Ain't Right If Nothin's Wrong
TTITLE6=With You
TTITLE7=Can't Be Saved
TTITLE8=It'll Be Allright
TTITLE9=Helping Hand
EXTD=
EXTT0=
EXTT1=
EXTT2=
EXTT3=
EXTT4=
EXTT5=
EXTT6=
EXTT7=
EXTT8=
EXTT9=
PLAYORDER=
